<?xml version="1.0" standalone="no"?>
<!DOCTYPE svg PUBLIC "-//W3C//DTD SVG 20010904//EN"
 "http://www.w3.org/TR/2001/REC-SVG-20010904/DTD/svg10.dtd">
<svg version="1.0" xmlns="http://www.w3.org/2000/svg"
 width="212.000000pt" height="123.000000pt" viewBox="0 0 212.000000 123.000000"
 preserveAspectRatio="xMidYMid meet">
<metadata>
Created by potrace 1.16, written by Peter Selinger 2001-2019
</metadata>
<g transform="translate(0.000000,123.000000) scale(0.100000,-0.100000)"
fill="#000000" stroke="none">
<path d="M1021 1129 c-94 -18 -178 -94 -202 -183 -15 -55 -6 -143 20 -193 20
-40 95 -113 115 -113 6 0 -6 14 -27 31 -56 46 -81 101 -82 179 0 54 5 73 28
113 73 124 239 152 347 59 108 -92 108 -250 1 -351 l-36 -34 33 19 c73 41 130
163 117 247 -10 63 -41 121 -87 162 -65 59 -141 81 -227 64z"/>
</g>
</svg>
